<svg id="setting_2" xmlns="http://www.w3.org/2000/svg" width="33.931" height="33.931" viewBox="0 0 33.931 33.931">
  <path id="Path_83775" data-name="Path 83775" d="M0,0H33.931V33.931H0Z" fill="none"/>
  <path id="Path_83776" data-name="Path 83776" d="M25.958,17.3a10,10,0,0,0,.085-1.329,8.167,8.167,0,0,0-.1-1.329l2.87-2.234a.694.694,0,0,0,.17-.862L26.27,6.853a.691.691,0,0,0-.834-.311L22.056,7.9a9.987,9.987,0,0,0-2.29-1.329L19.257,2.98a.684.684,0,0,0-.679-.58H13.15a.67.67,0,0,0-.664.58l-.509,3.591A10.208,10.208,0,0,0,9.686,7.9L6.307,6.542a.675.675,0,0,0-.834.311l-2.7,4.694a.643.643,0,0,0,.17.862l2.87,2.234A7.866,7.866,0,0,0,5.784,17.3l-2.87,2.234a.694.694,0,0,0-.17.862l2.714,4.694a.691.691,0,0,0,.834.311l3.379-1.357a9.987,9.987,0,0,0,2.29,1.329l.509,3.591a.7.7,0,0,0,.679.58h5.429a.659.659,0,0,0,.664-.58l.509-3.591a9.7,9.7,0,0,0,2.29-1.329L25.421,25.4a.675.675,0,0,0,.834-.311L28.97,20.4a.654.654,0,0,0-.17-.862ZM15.864,21.062a5.09,5.09,0,1,1,5.09-5.09A5.1,5.1,0,0,1,15.864,21.062Z" transform="translate(1.102 0.993)" fill="#65c4d8"/>
</svg>
