<svg id="account_2" xmlns="http://www.w3.org/2000/svg" width="33.931" height="33.931" viewBox="0 0 33.931 33.931">
  <path id="Path_83777" data-name="Path 83777" d="M0,0H33.931V33.931H0Z" fill="none"/>
  <path id="Path_83778" data-name="Path 83778" d="M22.5,14.9a3.534,3.534,0,1,0-3.534-3.534A3.524,3.524,0,0,0,22.5,14.9ZM11.9,13.483A4.241,4.241,0,1,0,7.655,9.241,4.224,4.224,0,0,0,11.9,13.483Zm10.6,4.241c-2.587,0-7.776,1.3-7.776,3.888v3.181H30.276V21.612C30.276,19.025,25.087,17.724,22.5,17.724ZM11.9,16.31C8.6,16.31,2,17.964,2,21.259v3.534h9.9V21.612c0-1.2.467-3.308,3.351-4.906A17.366,17.366,0,0,0,11.9,16.31Z" transform="translate(0.828 2.069)" fill="#65c4d8"/>
</svg>
